<svg width="133" height="55" viewBox="0 0 133 55" fill="none" xmlns="http://www.w3.org/2000/svg">
<g filter="url(#filter0_d_729_59)">
<path d="M10.7383 17.6289L14.2661 5.22656H15.9751L14.9863 10.0483L11.1899 23H9.49316L10.7383 17.6289ZM7.08838 5.22656L9.896 17.3848L10.7383 23H9.05371L4.74463 5.22656H7.08838ZM20.5405 17.3726L23.2871 5.22656H25.6431L21.3462 23H19.6616L20.5405 17.3726ZM16.2314 5.22656L19.6616 17.6289L20.9067 23H19.21L15.5479 10.0483L14.5469 5.22656H16.2314ZM26.9248 16.5425V16.2617C26.9248 15.3096 27.0632 14.4266 27.3398 13.6128C27.6165 12.7909 28.0153 12.0788 28.5361 11.4766C29.057 10.8662 29.6877 10.3942 30.4282 10.0605C31.1688 9.71875 31.9989 9.54785 32.9185 9.54785C33.8462 9.54785 34.6803 9.71875 35.4209 10.0605C36.1696 10.3942 36.8044 10.8662 37.3252 11.4766C37.8542 12.0788 38.257 12.7909 38.5337 13.6128C38.8104 14.4266 38.9487 15.3096 38.9487 16.2617V16.5425C38.9487 17.4946 38.8104 18.3776 38.5337 19.1914C38.257 20.0052 37.8542 20.7173 37.3252 21.3276C36.8044 21.9299 36.1737 22.4019 35.4331 22.7437C34.7007 23.0773 33.8706 23.2441 32.9429 23.2441C32.0151 23.2441 31.181 23.0773 30.4404 22.7437C29.6999 22.4019 29.0651 21.9299 28.5361 21.3276C28.0153 20.7173 27.6165 20.0052 27.3398 19.1914C27.0632 18.3776 26.9248 17.4946 26.9248 16.5425ZM29.1831 16.2617V16.5425C29.1831 17.2017 29.2604 17.8242 29.415 18.4102C29.5697 18.988 29.8016 19.5007 30.1108 19.9482C30.4282 20.3958 30.8229 20.7498 31.2949 21.0103C31.7669 21.2625 32.3162 21.3887 32.9429 21.3887C33.5614 21.3887 34.1025 21.2625 34.5664 21.0103C35.0384 20.7498 35.429 20.3958 35.7383 19.9482C36.0475 19.5007 36.2795 18.988 36.4341 18.4102C36.5968 17.8242 36.6782 17.2017 36.6782 16.5425V16.2617C36.6782 15.6107 36.5968 14.9963 36.4341 14.4185C36.2795 13.8325 36.0435 13.3158 35.7261 12.8682C35.4168 12.4124 35.0262 12.0544 34.5542 11.7939C34.0903 11.5335 33.5451 11.4033 32.9185 11.4033C32.3 11.4033 31.7547 11.5335 31.2827 11.7939C30.8188 12.0544 30.4282 12.4124 30.1108 12.8682C29.8016 13.3158 29.5697 13.8325 29.415 14.4185C29.2604 14.9963 29.1831 15.6107 29.1831 16.2617ZM44.0391 11.8672V23H41.7808V9.79199H43.978L44.0391 11.8672ZM48.165 9.71875L48.1528 11.8184C47.9657 11.7777 47.7866 11.7533 47.6157 11.7451C47.453 11.7288 47.2658 11.7207 47.0542 11.7207C46.5334 11.7207 46.0736 11.8021 45.6748 11.9648C45.276 12.1276 44.9383 12.3555 44.6616 12.6484C44.3849 12.9414 44.1652 13.2913 44.0024 13.6982C43.8478 14.097 43.7461 14.5365 43.6973 15.0166L43.0625 15.3828C43.0625 14.5853 43.1398 13.8366 43.2944 13.1367C43.4572 12.4368 43.7054 11.8184 44.0391 11.2812C44.3727 10.736 44.7959 10.3128 45.3086 10.0117C45.8294 9.70247 46.4479 9.54785 47.1641 9.54785C47.3268 9.54785 47.514 9.5682 47.7256 9.60889C47.9372 9.64144 48.0837 9.67806 48.165 9.71875ZM52.5229 4.25V23H50.2524V4.25H52.5229ZM60.5918 9.79199L54.8301 15.9565L51.6074 19.3013L51.4243 16.8965L53.7314 14.1377L57.833 9.79199H60.5918ZM58.5288 23L53.8169 16.7012L54.9888 14.687L61.1899 23H58.5288ZM67.623 14.5161V16.3716H61.666V14.5161H67.623Z" fill="#4540DB"/>
<path d="M76.7295 16.0298H71.981V14.1133H76.7295C77.6491 14.1133 78.3937 13.9668 78.9634 13.6738C79.533 13.3809 79.9481 12.974 80.2085 12.4531C80.4771 11.9323 80.6113 11.3382 80.6113 10.6709C80.6113 10.0605 80.4771 9.48682 80.2085 8.94971C79.9481 8.4126 79.533 7.98128 78.9634 7.65576C78.3937 7.3221 77.6491 7.15527 76.7295 7.15527H72.5303V23H70.1743V5.22656H76.7295C78.0723 5.22656 79.2075 5.4585 80.1353 5.92236C81.063 6.38623 81.7669 7.02913 82.2471 7.85107C82.7272 8.66488 82.9673 9.59668 82.9673 10.6465C82.9673 11.7858 82.7272 12.7583 82.2471 13.564C81.7669 14.3696 81.063 14.984 80.1353 15.4072C79.2075 15.8223 78.0723 16.0298 76.7295 16.0298ZM88.0576 4.25V23H85.7871V4.25H88.0576ZM99.4712 20.7417V13.9424C99.4712 13.4215 99.3654 12.9699 99.1538 12.5874C98.9504 12.1968 98.6411 11.8957 98.2261 11.6841C97.811 11.4725 97.2983 11.3667 96.688 11.3667C96.1183 11.3667 95.6178 11.4644 95.1865 11.6597C94.7633 11.855 94.4297 12.1113 94.1855 12.4287C93.9495 12.7461 93.8315 13.0879 93.8315 13.4541H91.5732C91.5732 12.9821 91.6953 12.5142 91.9395 12.0503C92.1836 11.5864 92.5335 11.1673 92.9893 10.793C93.4531 10.4105 94.0065 10.1094 94.6494 9.88965C95.3005 9.66178 96.0247 9.54785 96.8223 9.54785C97.7826 9.54785 98.6289 9.71061 99.3613 10.0361C100.102 10.3617 100.68 10.854 101.095 11.5132C101.518 12.1642 101.729 12.9821 101.729 13.9668V20.1191C101.729 20.5586 101.766 21.0265 101.839 21.5229C101.921 22.0194 102.039 22.4466 102.193 22.8047V23H99.8374C99.7235 22.7396 99.634 22.3937 99.5688 21.9624C99.5037 21.5229 99.4712 21.116 99.4712 20.7417ZM99.8618 14.9922L99.8862 16.5791H97.6035C96.9606 16.5791 96.3869 16.632 95.8823 16.7378C95.3778 16.8354 94.9546 16.986 94.6128 17.1895C94.271 17.3929 94.0106 17.6493 93.8315 17.9585C93.6525 18.2596 93.563 18.6136 93.563 19.0205C93.563 19.4355 93.6566 19.814 93.8438 20.1558C94.0309 20.4976 94.3117 20.7702 94.686 20.9736C95.0685 21.1689 95.5365 21.2666 96.0898 21.2666C96.7816 21.2666 97.3919 21.1201 97.9209 20.8271C98.4499 20.5342 98.869 20.1761 99.1782 19.7529C99.4956 19.3298 99.6665 18.9188 99.6909 18.52L100.655 19.6064C100.598 19.9482 100.444 20.3267 100.191 20.7417C99.9391 21.1567 99.6014 21.5555 99.1782 21.938C98.7632 22.3123 98.2668 22.6257 97.689 22.8779C97.1193 23.1221 96.4764 23.2441 95.7603 23.2441C94.8651 23.2441 94.0798 23.0692 93.4043 22.7192C92.737 22.3693 92.2161 21.9014 91.8418 21.3154C91.4756 20.7214 91.2925 20.0581 91.2925 19.3257C91.2925 18.6177 91.4308 17.9951 91.7075 17.458C91.9842 16.9128 92.383 16.4611 92.9038 16.103C93.4246 15.7368 94.0513 15.4601 94.7837 15.2729C95.5161 15.0858 96.334 14.9922 97.2373 14.9922H99.8618ZM110.567 21.3887C111.104 21.3887 111.601 21.2788 112.057 21.0591C112.512 20.8394 112.887 20.5382 113.18 20.1558C113.473 19.7651 113.639 19.3216 113.68 18.8252H115.829C115.788 19.6064 115.523 20.3348 115.035 21.0103C114.555 21.6776 113.924 22.2188 113.143 22.6338C112.362 23.0407 111.503 23.2441 110.567 23.2441C109.575 23.2441 108.708 23.0692 107.967 22.7192C107.235 22.3693 106.625 21.8892 106.136 21.2788C105.656 20.6685 105.294 19.9686 105.05 19.1792C104.814 18.3817 104.696 17.5394 104.696 16.6523V16.1396C104.696 15.2526 104.814 14.4144 105.05 13.625C105.294 12.8275 105.656 12.1235 106.136 11.5132C106.625 10.9028 107.235 10.4227 107.967 10.0728C108.708 9.72282 109.575 9.54785 110.567 9.54785C111.601 9.54785 112.504 9.75944 113.277 10.1826C114.05 10.5977 114.657 11.1673 115.096 11.8916C115.544 12.6077 115.788 13.4215 115.829 14.333H113.68C113.639 13.7878 113.485 13.2954 113.216 12.856C112.956 12.4165 112.598 12.0666 112.142 11.8062C111.694 11.5376 111.17 11.4033 110.567 11.4033C109.876 11.4033 109.294 11.5417 108.822 11.8184C108.358 12.0869 107.988 12.4531 107.711 12.917C107.442 13.3727 107.247 13.8813 107.125 14.4429C107.011 14.9963 106.954 15.5618 106.954 16.1396V16.6523C106.954 17.2301 107.011 17.7998 107.125 18.3613C107.239 18.9229 107.43 19.4315 107.699 19.8872C107.975 20.3429 108.346 20.7091 108.81 20.9858C109.282 21.2544 109.868 21.3887 110.567 21.3887ZM123.849 23.2441C122.929 23.2441 122.095 23.0895 121.346 22.7803C120.606 22.4629 119.967 22.0194 119.43 21.4497C118.901 20.88 118.494 20.2046 118.209 19.4233C117.924 18.6421 117.782 17.7876 117.782 16.8599V16.3472C117.782 15.2729 117.94 14.3167 118.258 13.4785C118.575 12.6322 119.007 11.916 119.552 11.3301C120.097 10.7441 120.715 10.3006 121.407 9.99951C122.099 9.6984 122.815 9.54785 123.556 9.54785C124.5 9.54785 125.313 9.71061 125.997 10.0361C126.689 10.3617 127.254 10.8174 127.694 11.4033C128.133 11.9811 128.459 12.6647 128.67 13.4541C128.882 14.2354 128.988 15.0898 128.988 16.0176V17.0308H119.125V15.1875H126.729V15.0166C126.697 14.4307 126.575 13.861 126.363 13.3076C126.16 12.7542 125.834 12.2985 125.387 11.9404C124.939 11.5824 124.329 11.4033 123.556 11.4033C123.043 11.4033 122.571 11.5132 122.14 11.7329C121.708 11.9445 121.338 12.2619 121.029 12.6851C120.72 13.1082 120.479 13.625 120.309 14.2354C120.138 14.8457 120.052 15.5496 120.052 16.3472V16.8599C120.052 17.4865 120.138 18.0765 120.309 18.6299C120.488 19.1751 120.744 19.6553 121.078 20.0703C121.419 20.4854 121.83 20.8109 122.311 21.0469C122.799 21.2829 123.352 21.4009 123.971 21.4009C124.768 21.4009 125.444 21.2381 125.997 20.9126C126.55 20.5871 127.035 20.1517 127.45 19.6064L128.817 20.6929C128.532 21.1242 128.17 21.5352 127.73 21.9258C127.291 22.3164 126.75 22.6338 126.107 22.8779C125.472 23.1221 124.719 23.2441 123.849 23.2441Z" fill="black"/>
<path d="M10 29C10 29 42.4273 46.6934 64.8009 45.9789C85.0942 45.3309 114 29 114 29" stroke="url(#paint0_linear_729_59)" stroke-width="2" stroke-linejoin="round"/>
</g>
<defs>
<filter id="filter0_d_729_59" x="0.744629" y="4.25" width="132.243" height="50.75" filterUnits="userSpaceOnUse" color-interpolation-filters="sRGB">
<feFlood flood-opacity="0" result="BackgroundImageFix"/>
<feColorMatrix in="SourceAlpha" type="matrix" values="0 0 0 0 0 0 0 0 0 0 0 0 0 0 0 0 0 0 127 0" result="hardAlpha"/>
<feOffset dy="4"/>
<feGaussianBlur stdDeviation="2"/>
<feComposite in2="hardAlpha" operator="out"/>
<feColorMatrix type="matrix" values="0 0 0 0 0 0 0 0 0 0 0 0 0 0 0 0 0 0 0.25 0"/>
<feBlend mode="normal" in2="BackgroundImageFix" result="effect1_dropShadow_729_59"/>
<feBlend mode="normal" in="SourceGraphic" in2="effect1_dropShadow_729_59" result="shape"/>
</filter>
<linearGradient id="paint0_linear_729_59" x1="114" y1="29" x2="4.88435" y2="26.8303" gradientUnits="userSpaceOnUse">
<stop offset="0.119831" stop-color="#4540DB"/>
<stop offset="1"/>
</linearGradient>
</defs>
</svg>
